{
    "accessors" : [
        {
            "bufferView" : 0,
            "componentType" : 5126,
            "count" : 1622,
            "max" : [
                193.9613800048828,
                41.747215270996094,
                542.5877685546875
            ],
            "min" : [
                -193.9613800048828,
                -100.71729278564453,
                -33.092529296875
            ],
            "type" : "VEC3"
        },
        {
            "bufferView" : 1,
            "componentType" : 5126,
            "count" : 1622,
            "type" : "VEC3"
        },
        {
            "bufferView" : 2,
            "componentType" : 5126,
            "count" : 1622,
            "type" : "VEC2"
        },
        {
            "bufferView" : 3,
            "componentType" : 5126,
            "count" : 1622,
            "type" : "VEC4"
        },
        {
            "bufferView" : 4,
            "componentType" : 5123,
            "count" : 5592,
            "type" : "SCALAR"
        }
    ],
    "asset" : {
        "generator" : "Khronos Blender glTF 2.0 I/O",
        "version" : "2.0"
    },
    "bufferViews" : [
        {
            "buffer" : 0,
            "byteLength" : 19464,
            "byteOffset" : 0
        },
        {
            "buffer" : 0,
            "byteLength" : 19464,
            "byteOffset" : 19464
        },
        {
            "buffer" : 0,
            "byteLength" : 12976,
            "byteOffset" : 38928
        },
        {
            "buffer" : 0,
            "byteLength" : 25952,
            "byteOffset" : 51904
        },
        {
            "buffer" : 0,
            "byteLength" : 11184,
            "byteOffset" : 77856
        }
    ],
    "buffers" : [
        {
            "byteLength" : 89040,
            "uri" : "scifi_fighter_MK.bin"
        }
    ],
    "extensions" : {},
    "materials" : [
        {
            "name" : "SciFi_Fighter_MK_COLOR_0",
            "pbrMetallicRoughness" : {
                "metallicFactor" : 1,
                "roughnessFactor" : 1
            }
        }
    ],
    "meshes" : [
        {
            "name" : "SciFi_Fighter_MK",
            "primitives" : [
                {
                    "attributes" : {
                        "COLOR_0" : 3,
                        "NORMAL" : 1,
                        "POSITION" : 0,
                        "TEXCOORD_0" : 2
                    },
                    "indices" : 4,
                    "material" : 0
                }
            ]
        }
    ],
    "nodes" : [
        {
            "mesh" : 0,
            "name" : "SciFi_Fighter_MK",
            "rotation" : [
                1,
                0,
                0,
                -1.3435884227419592e-07
            ],
            "scale" : [
                0.012680590152740479,
                0.012680592015385628,
                0.012680592015385628
            ],
            "translation" : [
                -0.01002470776438713,
                -0.4839785397052765,
                4.2866034507751465
            ]
        },
        {
            "name" : "Lamp",
            "rotation" : [
                0.5232755541801453,
                0.3420340418815613,
                -0.7269424200057983,
                0.2841658592224121
            ],
            "translation" : [
                4.076245307922363,
                5.903862476348877,
                -1.0054532289505005
            ]
        },
        {
            "name" : "Camera.001",
            "rotation" : [
                0.8932931423187256,
                0.0857933834195137,
                -0.38690993189811707,
                0.21205581724643707
            ],
            "translation" : [
                7.481131553649902,
                5.343664646148682,
                6.507641792297363
            ]
        },
        {
            "name" : "Light",
            "rotation" : [
                0.16907575726509094,
                0.7558802962303162,
                -0.27217137813568115,
                0.570947527885437
            ],
            "translation" : [
                4.076245307922363,
                5.903861999511719,
                -1.0054539442062378
            ]
        },
        {
            "name" : "Camera",
            "rotation" : [
                0.483536034822464,
                0.33687159419059753,
                -0.20870360732078552,
                0.7804827094078064
            ],
            "translation" : [
                7.358891487121582,
                4.958309173583984,
                6.925790786743164
            ]
        }
    ],
    "scene" : 0,
    "scenes" : [
        {
            "name" : "Scene",
            "nodes" : [
                0,
                1,
                2,
                3,
                4
            ]
        }
    ]
}
